<svg width="6" height="6" viewBox="0 0 6 6" fill="none" xmlns="http://www.w3.org/2000/svg">
<path d="M1.90667 0.293701C2.48245 0.293701 3.05797 0.293701 3.63638 0.293701C3.63954 0.883691 3.64507 1.47663 3.64823 2.06635C4.22664 2.07226 4.80821 2.07521 5.38689 2.07816C5.38689 2.66815 5.38689 3.25492 5.38689 3.84491C4.80848 3.84786 4.2269 3.85082 3.64823 3.85377C3.64243 4.44671 3.63954 5.03643 3.63638 5.62937C3.05797 5.62642 2.47902 5.62937 1.90351 5.62937C1.89798 5.03643 1.89798 4.44671 1.89192 3.85672C1.31351 3.85055 0.731936 3.84786 0.153259 3.84464C0.153259 3.25465 0.153259 2.66789 0.153259 2.0779C0.731936 2.07494 1.31061 2.07199 1.89192 2.06609C1.89482 1.47663 1.90061 0.883691 1.90667 0.293701Z" fill="white"/>
</svg>
